<?xml version="1.0" encoding="UTF-8"?>
<svg version="1.1" xmlns="http://www.w3.org/2000/svg" width="2000" height="551">
<path d="M0 0 C313.05600392 0 313.05600392 0 362.60400391 48.63916016 C363.85441851 49.85808478 365.13443663 51.04646739 366.41796875 52.23046875 C394.29297309 78.52671178 408.01470622 119.30883396 409.21875 156.875 C410.10215093 200.06125893 396.86139506 242.74076653 366.625 274.30859375 C365.75875 275.19675781 364.8925 276.08492188 364 277 C362.8553125 278.25490234 362.8553125 278.25490234 361.6875 279.53515625 C344.83492783 297.49794854 321.81230647 308.38775648 299.18798828 317.10546875 C297.06504305 317.97340798 295.03640943 318.94670478 293 320 C293.50261353 320.82516113 293.50261353 320.82516113 294.01538086 321.66699219 C303.29899081 336.90981344 312.56637802 352.16243454 321.82666016 367.41943359 C324.67824888 372.11754943 327.53051343 376.81525486 330.3828125 381.51293945 C331.79307807 383.83562701 333.20322813 386.15838463 334.61328125 388.48120117 C337.84618125 393.80668799 341.07970558 399.13179185 344.31582642 404.45532227 C351.37841948 416.07361894 358.43157876 427.69687303 365.41455078 439.36328125 C369.64559887 446.42501032 373.9132981 453.46434044 378.1875 460.5 C378.54632263 461.09068268 378.90514526 461.68136536 379.27484131 462.28994751 C382.57494249 467.72195206 385.87670491 473.15294623 389.17919922 478.58349609 C393.42279502 485.56192278 397.66232229 492.54278888 401.89501953 499.52783203 C403.3292133 501.89441514 404.76529355 504.25984015 406.20263672 506.62451172 C408.32782469 510.12152238 410.44546481 513.62304773 412.5625 517.125 C413.53727295 518.72637817 413.53727295 518.72637817 414.53173828 520.36010742 C415.12067871 521.3369751 415.70961914 522.31384277 416.31640625 523.3203125 C416.83662354 524.17898926 417.35684082 525.03766602 417.89282227 525.92236328 C419 528 419 528 419 530 C404.23238017 530.51572457 389.46596138 530.90270719 374.69114399 531.13986778 C367.82902572 531.2529632 360.972523 531.40683222 354.11401367 531.65966797 C347.48759317 531.90382971 340.8654423 532.03043674 334.23433495 532.08729935 C331.71263274 532.12777986 329.19123019 532.20685509 326.67202187 532.32606125 C310.62535179 533.05477181 310.62535179 533.05477181 304 530 C298.26678047 524.68726621 295.11176177 517.69731393 292.12119675 510.59329224 C290.65544946 507.20306562 288.86513716 504.15756281 286.94140625 501.0078125 C285.81402884 499.04749302 284.68770844 497.08656525 283.5625 495.125 C278.73541089 486.73398528 273.88530344 478.35725733 269 470 C263.50044714 460.59015408 258.04550765 451.15529369 252.60546875 441.7109375 C248.42650872 434.4604851 244.22259494 427.22511731 240 420 C234.50054464 410.5900967 229.04550804 401.15529437 223.60546875 391.7109375 C218.86447836 383.48536826 214.08764462 375.28128784 209.29589844 367.08520508 C206.13483974 361.67375652 202.98787281 356.2545368 199.859375 350.82421875 C199.5149939 350.22650665 199.17061279 349.62879456 198.8157959 349.01296997 C197.14108368 346.10534351 195.46811326 343.19673518 193.796875 340.28710938 C192.8996875 338.72766602 192.8996875 338.72766602 191.984375 337.13671875 C191.45553711 336.21592529 190.92669922 335.29513184 190.38183594 334.34643555 C189.31175189 332.52937233 188.16972036 330.75458054 187 329 C159.28 328.67 131.56 328.34 103 328 C103 394.66 103 461.32 103 530 C69.01 530 35.02 530 0 530 C0 355.1 0 180.2 0 0 Z M103 86 C103 137.48 103 188.96 103 242 C132.9165625 242.061875 132.9165625 242.061875 163.4375 242.125 C169.70419678 242.14320801 175.97089355 242.16141602 182.42749023 242.18017578 C188.11005293 242.18687009 188.11005293 242.18687009 193.7926178 242.19088745 C196.29771132 242.19393201 198.80280215 242.20091002 201.30787659 242.21115112 C230.92895014 242.32605334 260.17623734 241.19087504 283.4453125 220.5703125 C298.18740705 205.73805223 303.65874814 185.09401697 304.04345703 164.69580078 C303.96916598 144.23954228 298.66199725 123.96711004 284.12744141 108.95532227 C282.77248167 107.61545893 281.38692073 106.3067519 280 105 C279.29359375 104.32453125 278.5871875 103.6490625 277.859375 102.953125 C260.40078535 87.89342553 234.54213332 85.81476383 212.55200195 85.88647461 C211.34138942 85.88635407 210.13077688 85.88623354 208.88347912 85.88610935 C205.00172718 85.88685006 201.12002449 85.89443963 197.23828125 85.90234375 C194.82694522 85.90381578 192.41560887 85.90483488 190.00427246 85.90539551 C181.10701007 85.91061815 172.20975454 85.92457941 163.3125 85.9375 C133.4578125 85.9684375 133.4578125 85.9684375 103 86 Z " fill="#8454E7" transform="translate(460,6)"/>
<path d="M0 0 C0.79729523 -0.00067474 1.59459045 -0.00134949 2.41604614 -0.00204468 C54.11950529 0.06721345 102.25259494 17.30894818 139.8125 53.25 C140.75222656 54.136875 141.69195313 55.02375 142.66015625 55.9375 C172.32077651 84.63863466 188.06716797 124.02148359 193.8125 164.25 C193.91852539 164.98919678 194.02455078 165.72839355 194.13378906 166.48999023 C195.21398141 175.41899958 195.05640307 184.45733484 195.0625 193.4375 C195.06317474 194.32950104 195.06384949 195.22150208 195.06454468 196.14053345 C195.04786129 210.0377917 194.52797384 223.57990732 191.8125 237.25 C191.64089355 238.12527344 191.46928711 239.00054687 191.29248047 239.90234375 C181.19784369 289.62677444 152.78216812 331.65309393 110.56201172 359.68261719 C63.66487185 389.88345642 3.89041642 396.52959413 -49.98193359 385.40820312 C-83.88731644 377.95229274 -112.87513839 361.80682685 -138.1875 338.25 C-138.90421875 337.59902344 -139.6209375 336.94804687 -140.359375 336.27734375 C-173.26406406 305.11396122 -190.92281341 256.87943755 -192.39428711 212.22436523 C-192.51450443 206.85771878 -192.52151616 201.49272169 -192.5 196.125 C-192.49817719 195.17945251 -192.49635437 194.23390503 -192.49447632 193.25970459 C-192.44848476 179.07722695 -192.02076159 165.19161991 -189.1875 151.25 C-189.01057617 150.363125 -188.83365234 149.47625 -188.65136719 148.5625 C-178.97276992 101.49008223 -152.69051863 59.20279851 -112.6328125 32.1328125 C-78.94317666 9.99390895 -40.07494362 0.03054769 0 0 Z M-63.1875 115.25 C-77.37373267 131.77192089 -84.969205 152.75846659 -87.1875 174.25 C-87.29707031 175.17039062 -87.40664062 176.09078125 -87.51953125 177.0390625 C-90.34985234 204.43657067 -87.57965211 232.45901537 -75.1875 257.25 C-74.65253906 258.32121094 -74.11757812 259.39242187 -73.56640625 260.49609375 C-69.21167973 268.52675248 -63.58936452 274.8294439 -57.1875 281.25 C-56.54167969 281.91902344 -55.89585937 282.58804688 -55.23046875 283.27734375 C-41.52194518 296.44827816 -21.0172842 301.97586427 -2.5 302.5625 C19.86269745 302.0892154 41.06280622 294.20408172 57.8125 279.25 C58.57175781 278.57324219 59.33101562 277.89648438 60.11328125 277.19921875 C82.76816055 255.79642259 89.89907596 226.38865729 90.77734375 196.30859375 C91.23476824 166.29673192 84.14710858 136.71455327 63.04296875 114.484375 C62.30691406 113.74703125 61.57085938 113.0096875 60.8125 112.25 C60.12800781 111.55390625 59.44351562 110.8578125 58.73828125 110.140625 C41.04826922 93.26808118 17.33187941 87.53052865 -6.4375 87.93359375 C-28.3681928 88.79680778 -48.29334925 99.49563495 -63.1875 115.25 Z " fill="#E25D51" transform="translate(1783.1875,151.75)"/>
<path d="M0 0 C32.34 0 64.68 0 98 0 C98.04898437 15.75621094 98.09796875 31.51242188 98.1484375 47.74609375 C98.18383148 57.7402398 98.21971631 67.73438011 98.2578125 77.72851562 C98.31816173 93.58437721 98.37653263 109.44022958 98.421875 125.29614258 C98.45491146 136.84553227 98.49480634 148.39487489 98.54279006 159.9442125 C98.56793959 166.05423609 98.58975443 172.16422893 98.60334396 178.27429008 C98.61626977 184.0370652 98.63843526 189.79973421 98.66738319 195.56245041 C98.67637741 197.66613549 98.68212987 199.76983761 98.68421364 201.87354088 C98.70219778 217.28573088 99.0724615 232.72542407 103.1875 247.6875 C103.50895996 248.86783813 103.50895996 248.86783813 103.83691406 250.07202148 C108.34840553 265.78407221 116.92619455 279.20106581 131 288 C137.71871185 291.38184157 144.5675286 293.82931769 152 295 C152.70382812 295.11085938 153.40765625 295.22171875 154.1328125 295.3359375 C173.346863 297.88403739 194.29974207 295.09557816 210.5078125 283.9375 C227.20583802 270.95596292 234.72241016 252.40318068 238 232 C239.30210471 220.1737556 239.17143249 208.27924917 239.20532227 196.39892578 C239.21491941 194.24910298 239.22493052 192.099282 239.23532104 189.94946289 C239.26217739 184.15296785 239.28329034 178.35646482 239.30332303 172.55994272 C239.32530254 166.4874469 239.35263228 160.41497514 239.37937927 154.34249878 C239.42914532 142.86112163 239.47414334 131.37973102 239.51740164 119.89832771 C239.57618177 104.37097702 239.64238147 88.84365804 239.70815182 73.31633568 C239.81147461 48.87757854 239.90493103 24.43879387 240 0 C272.34 0 304.68 0 338 0 C338 125.07 338 250.14 338 379 C308.3 379 278.6 379 248 379 C245.03 360.685 245.03 360.685 242 342 C238.37 345.63 234.74 349.26 231 353 C228.71438878 354.95486402 226.54722619 356.75965497 224.125 358.5 C223.20750977 359.16346436 223.20750977 359.16346436 222.27148438 359.84033203 C200.85148575 374.81850348 175.23468129 384.09126857 149 385 C147.9996875 385.03996094 146.999375 385.07992188 145.96875 385.12109375 C107.76427555 385.87982747 71.01590863 374.94771939 42.97827148 348.37866211 C36.01482607 341.57034548 30.21821081 334.21068603 25 326 C24.42040527 325.09024414 24.42040527 325.09024414 23.82910156 324.16210938 C12.40276318 305.86847457 6.06741949 285.45210953 2.5 264.3125 C2.36980469 263.56033203 2.23960937 262.80816406 2.10546875 262.03320312 C0.5573618 252.84620479 -0.14961254 243.81069364 -0.12025452 234.49630737 C-0.12110894 233.4872928 -0.12196337 232.47827822 -0.12284368 231.43868744 C-0.12448059 228.08394369 -0.1190066 224.72925081 -0.11352539 221.37451172 C-0.11324311 218.9592743 -0.11340206 216.5440368 -0.1139679 214.12879944 C-0.11419504 208.94242747 -0.11137296 203.75606685 -0.10573006 198.56969833 C-0.09757687 191.07123058 -0.09499593 183.57276891 -0.09374207 176.0742972 C-0.09155753 163.90629884 -0.08491371 151.73830721 -0.07543945 139.5703125 C-0.06624983 127.75553419 -0.05917659 115.94075772 -0.05493164 104.12597656 C-0.05466892 103.39678988 -0.05440619 102.6676032 -0.05413551 101.91631995 C-0.0528304 98.25792885 -0.05156671 94.59953774 -0.05032361 90.94114661 C-0.03996964 60.62742519 -0.0215414 30.31371613 0 0 Z " fill="#AA58AA" transform="translate(932,157)"/>
<path d="M0 0 C32.67 0 65.34 0 99 0 C99 34.98 99 69.96 99 106 C126.72 106 154.44 106 183 106 C183 134.71 183 163.42 183 193 C155.28 193 127.56 193 99 193 C99.06157317 221.91122433 99.06157317 221.91122433 99.16015625 250.82226562 C99.20860084 262.62214961 99.25308185 274.4219487 99.27099609 286.22192383 C99.28406525 294.81805917 99.31116302 303.41402062 99.35461307 312.01005799 C99.37711028 316.55517688 99.3929178 321.10008226 99.39188385 325.64526176 C99.39113022 329.93734882 99.40935832 334.228966 99.44116783 338.52093124 C99.44957546 340.08278695 99.45148024 341.64469594 99.44580269 343.20656395 C99.40198519 357.13281293 100.36793326 374.07437057 110 385 C122.46399755 396.08986117 135.15613164 399.13039922 151.4375 399.25 C152.69469849 399.26401855 152.69469849 399.26401855 153.97729492 399.27832031 C163.78971484 399.23120185 173.10958808 397.98904119 183 397 C183 425.05 183 453.1 183 482 C137.43759144 489.59373476 87.72499413 491.82668671 48 464 C18.77898601 441.89133384 6.37346685 410.54644874 1.40373135 375.22536659 C-0.01003102 363.93097007 -0.14158406 352.62587825 -0.11352539 341.26416016 C-0.11324256 339.63650006 -0.11340311 338.00883983 -0.1139679 336.38117981 C-0.11425214 332.00816992 -0.10841615 327.63518806 -0.10139394 323.26218462 C-0.09509789 318.67514727 -0.09455169 314.08810912 -0.09336853 309.50106812 C-0.09027351 300.83524103 -0.08208503 292.16942673 -0.07201904 283.50360525 C-0.06080078 273.62922596 -0.05533312 263.75484602 -0.05032361 253.88046193 C-0.03990069 233.58696593 -0.02157822 213.29348742 0 193 C-17.49 193 -34.98 193 -53 193 C-53 164.29 -53 135.58 -53 106 C-35.51 106 -18.02 106 0 106 C0 71.02 0 36.04 0 0 Z " fill="#C75B7C" transform="translate(1374,51)"/>
<path d="M0 0 C3.24634177 1.370485 4.80844046 2.71949547 6.7421875 5.6484375 C7.49423462 6.76980103 7.49423462 6.76980103 8.26147461 7.91381836 C8.79393799 8.7260083 9.32640137 9.53819824 9.875 10.375 C11.03925903 12.11402192 12.20466061 13.85227935 13.37109375 15.58984375 C13.97034668 16.48687012 14.56959961 17.38389648 15.18701172 18.30810547 C18.04851892 22.55682327 20.99087004 26.74756625 23.9375 30.9375 C25.11330776 32.61326265 26.28908887 34.289044 27.46484375 35.96484375 C28.34052002 37.21177002 28.34052002 37.21177002 29.23388672 38.48388672 C32.16021864 42.65291862 35.07978099 46.8266852 38 51 C39.16663389 52.66668961 40.33330057 54.33335627 41.5 56 C48.5 66 48.5 66 50.25146484 68.50219727 C51.41311751 70.16163156 52.57490045 71.82097466 53.73681641 73.48022461 C56.73129575 77.75679158 59.723198 82.03512736 62.7109375 86.31640625 C68.7293664 94.93598008 74.7541221 103.54284855 81 112 C89.79996197 106.60218315 98.18406494 100.6865872 106.59228516 94.70605469 C111.75544199 91.04755338 116.94868283 87.4317854 122.13647461 83.80834961 C126.77664488 80.56480411 131.39935308 77.29939156 136 74 C139.35013343 75.39971946 140.92845705 76.88067159 142.9609375 79.8671875 C143.50782227 80.66044434 144.05470703 81.45370117 144.61816406 82.27099609 C145.19791992 83.13031738 145.77767578 83.98963867 146.375 84.875 C147.62738707 86.69806582 148.87999763 88.52097813 150.1328125 90.34375 C150.77250977 91.28089844 151.41220703 92.21804688 152.07128906 93.18359375 C155.09819376 97.60364091 158.1743874 101.9887763 161.25 106.375 C161.82685547 107.2009668 162.40371094 108.02693359 162.99804688 108.87792969 C165.6727379 112.70392728 168.36242465 116.51668862 171.1015625 120.296875 C171.57303711 120.94865723 172.04451172 121.60043945 172.53027344 122.27197266 C173.40162707 123.47269417 174.2770352 124.67048797 175.15722656 125.86474609 C178 129.78051529 178 129.78051529 178 132 C176.57324219 133.19824219 176.57324219 133.19824219 174.546875 134.546875 C173.792854 135.05468506 173.03883301 135.56249512 172.26196289 136.08569336 C171.01854126 136.90952515 171.01854126 136.90952515 169.75 137.75 C167.99279351 138.93256008 166.23630525 140.11618799 164.48046875 141.30078125 C163.57087402 141.91260254 162.6612793 142.52442383 161.72412109 143.15478516 C157.47082567 146.03580387 153.26555548 148.98386648 149.0625 151.9375 C148.23524414 152.51790039 147.40798828 153.09830078 146.55566406 153.69628906 C144.87557615 154.87514966 143.19572575 156.05434883 141.51611328 157.23388672 C137.34708138 160.16021864 133.1733148 163.07978099 129 166 C127.33331039 167.16663389 125.66664373 168.33330057 124 169.5 C114 176.5 114 176.5 111.49853516 178.25097656 C109.83669009 179.41430058 108.17490595 180.57771164 106.51318359 181.74121094 C102.27324908 184.70974716 98.03217272 187.67662944 93.7890625 190.640625 C92.50310181 191.53962524 92.50310181 191.53962524 91.19116211 192.45678711 C89.50010319 193.63848511 87.8082275 194.81901526 86.11547852 195.99829102 C82.29029386 198.66886133 78.48772009 201.36056476 74.73828125 204.13671875 C74.09101074 204.61270508 73.44374023 205.08869141 72.77685547 205.57910156 C71.58563546 206.45883983 70.4005896 207.34702608 69.22314453 208.24511719 C67.65234375 209.40234375 67.65234375 209.40234375 65 211 C61.61185264 209.87061755 61.25205104 209.31024735 59.35546875 206.44921875 C58.85088135 205.69842041 58.34629395 204.94762207 57.82641602 204.17407227 C57.28557373 203.35350342 56.74473145 202.53293457 56.1875 201.6875 C55.0140902 199.93938589 53.83957547 198.19201304 52.6640625 196.4453125 C52.05852539 195.54200195 51.45298828 194.63869141 50.82910156 193.70800781 C47.95780779 189.45702136 45.012632 185.2589911 42.0625 181.0625 C41.48201904 180.23516357 40.90153809 179.40782715 40.3034668 178.55541992 C39.12470385 176.87540198 37.94558602 175.19563298 36.76611328 173.51611328 C33.83978136 169.34708138 30.92021901 165.1733148 28 161 C26.83336611 159.33331039 25.66669943 157.66664373 24.5 156 C8.16666667 132.66666667 -8.16666667 109.33333333 -24.5 86 C-25.07806396 85.1742749 -25.65612793 84.3485498 -26.25170898 83.49780273 C-27.4129852 81.83867454 -28.57395755 80.17933361 -29.73461914 78.51977539 C-32.73124513 74.23593458 -35.73378912 69.9564272 -38.74609375 65.68359375 C-44.69229611 57.23889536 -50.61850951 48.82078893 -56 40 C-45.61744687 31.96189435 -34.80036427 24.55454558 -24.00683594 17.08398438 C-19.20445768 13.75554164 -14.41349709 10.41087055 -9.625 7.0625 C-8.7690625 6.46542236 -7.913125 5.86834473 -7.03125 5.25317383 C-6.25007813 4.70685303 -5.46890625 4.16053223 -4.6640625 3.59765625 C-3.63466553 2.87848022 -3.63466553 2.87848022 -2.58447266 2.14477539 C-1.03931592 1.09233416 -1.03931592 1.09233416 0 0 Z " fill="#7653FE" transform="translate(74,193)"/>
<path d="M0 0 C1.74624929 2.21294601 3.2816033 4.39290068 4.8125 6.75 C5.80095131 8.22992338 6.79058977 9.70905436 7.78125 11.1875 C8.30460937 11.97382813 8.82796875 12.76015625 9.3671875 13.5703125 C12.12327973 17.67148324 14.97011728 21.7083817 17.8125 25.75 C19.00667004 27.45301308 20.20067891 29.15613919 21.39453125 30.859375 C21.99088379 31.70951172 22.58723633 32.55964844 23.20166016 33.43554688 C26.13724984 37.62173125 29.06843609 41.81099592 32 46 C33.16664481 47.66668197 34.3333115 49.33334862 35.5 51 C70.5 101 70.5 101 72.25048828 103.50073242 C73.41548364 105.16498828 74.5805226 106.82921361 75.74560547 108.4934082 C78.68820411 112.69670923 81.63000904 116.90056181 84.5703125 121.10546875 C85.75514457 122.79952376 86.94004007 124.49353442 88.125 126.1875 C88.70548096 127.01733398 89.28596191 127.84716797 89.8840332 128.70214844 C93.14076851 133.35449667 96.40850181 137.99876228 99.69018555 142.63354492 C101.63927224 145.38858039 103.58068906 148.14898595 105.52246094 150.90917969 C107.08146046 153.1152722 108.65410902 155.3112945 110.2265625 157.5078125 C111.25568022 158.96320811 112.28434228 160.41892605 113.3125 161.875 C113.79936279 162.54756836 114.28622559 163.22013672 114.7878418 163.91308594 C115.93863115 165.55543553 116.98036338 167.273162 118 169 C116.87061755 172.38814736 116.31024735 172.74794896 113.44921875 174.64453125 C112.69809814 175.14936035 111.94697754 175.65418945 111.1730957 176.17431641 C110.35284912 176.71491699 109.53260254 177.25551758 108.6875 177.8125 C106.94456695 178.98196254 105.20240391 180.15257333 103.4609375 181.32421875 C102.55827148 181.92927246 101.65560547 182.53432617 100.72558594 183.15771484 C96.3832322 186.09280991 92.09862228 189.10865448 87.8125 192.125 C86.15519634 193.28681278 84.49764675 194.44827484 82.83984375 195.609375 C80.42541705 197.30068454 78.01113363 198.99218677 75.59814453 200.68554688 C73.36040297 202.2535041 71.11837949 203.81512415 68.875 205.375 C68.20573486 205.84566895 67.53646973 206.31633789 66.84692383 206.80126953 C62.22876431 210 62.22876431 210 60 210 C58.70996094 208.48144531 58.70996094 208.48144531 57.234375 206.328125 C56.68136719 205.52890625 56.12835938 204.7296875 55.55859375 203.90625 C54.66333984 202.59140625 54.66333984 202.59140625 53.75 201.25 C52.47413475 199.40091993 51.19808815 197.55196497 49.921875 195.703125 C49.26896484 194.75244141 48.61605469 193.80175781 47.94335938 192.82226562 C44.9878914 188.53015384 41.99354831 184.26559433 39 180 C37.83311447 178.33348656 36.66644859 176.6668193 35.5 175 C34.9225 174.175 34.345 173.35 33.75 172.5 C14.5 145 14.5 145 12.74853516 142.49780273 C11.58688249 140.83836844 10.42509955 139.17902534 9.26318359 137.51977539 C6.26870425 133.24320842 3.276802 128.96487264 0.2890625 124.68359375 C-2.62782195 120.50493697 -5.55100492 116.33078269 -8.48144531 112.16162109 C-9.44083458 110.79595669 -10.39871819 109.42923218 -11.35449219 108.06103516 C-12.47967187 106.45267959 -13.61434991 104.85097964 -14.75 103.25 C-15.63945312 101.98929688 -15.63945312 101.98929688 -16.546875 100.703125 C-17.02640625 100.14109375 -17.5059375 99.5790625 -18 99 C-20.68956892 99 -21.67950261 100.01602407 -23.8671875 101.5703125 C-24.6605249 102.13016846 -25.4538623 102.69002441 -26.27124023 103.2668457 C-27.56010132 104.18663208 -27.56010132 104.18663208 -28.875 105.125 C-30.69653219 106.41287696 -32.5181492 107.70063396 -34.33984375 108.98828125 C-35.27683105 109.6529541 -36.21381836 110.31762695 -37.17919922 111.00244141 C-42.42023648 114.71389777 -47.6836842 118.39348975 -52.95263672 122.06518555 C-56.66009362 124.65050306 -60.35492323 127.24668264 -64.00390625 129.9140625 C-64.60211182 130.34549561 -65.20031738 130.77692871 -65.81665039 131.22143555 C-67.37353603 132.34614147 -68.92155627 133.48309205 -70.46875 134.62109375 C-73 136 -73 136 -75.01416016 135.76708984 C-78.43678083 134.44500057 -79.95664583 131.16119645 -81.875 128.1875 C-82.85293354 126.71792866 -83.83216108 125.24921782 -84.8125 123.78125 C-85.32941406 123.00136719 -85.84632813 122.22148437 -86.37890625 121.41796875 C-89.14369294 117.29410619 -92.01451642 113.24527534 -94.875 109.1875 C-101.6668294 99.51517358 -108.34960734 89.76995845 -115 80 C-111.2970036 76.0581006 -107.4302256 73.05334272 -102.9375 70.0625 C-101.50329113 69.09205429 -100.06972732 68.12065476 -98.63671875 67.1484375 C-97.50435791 66.38225098 -97.50435791 66.38225098 -96.34912109 65.60058594 C-92.2893673 62.83445147 -88.27077401 60.00986096 -84.25 57.1875 C-83.41073975 56.59912354 -82.57147949 56.01074707 -81.70678711 55.40454102 C-79.99251297 54.20270616 -78.27840227 53.00063814 -76.56445312 51.79833984 C-72.37826875 48.86275016 -68.18900408 45.93156391 -64 43 C-62.33331803 41.83335519 -60.66665138 40.6666885 -59 39.5 C-49 32.5 -49 32.5 -46.49780273 30.74853516 C-44.83836844 29.58688249 -43.17902534 28.42509955 -41.51977539 27.26318359 C-37.24320842 24.26870425 -32.96487264 21.276802 -28.68359375 18.2890625 C-26.93488365 17.06772578 -25.18618553 15.84637191 -23.4375 14.625 C-22.60162354 14.04218262 -21.76574707 13.45936523 -20.90454102 12.85888672 C-15.5198265 9.09492971 -10.21518745 5.24937536 -4.99609375 1.2578125 C-3 0 -3 0 0 0 Z " fill="#7653FE" transform="translate(235,149)"/>
</svg>
